<svg width="60.000000" height="60.000000" viewBox="0 0 60 60" fill="none" xmlns="http://www.w3.org/2000/svg" xmlns:xlink="http://www.w3.org/1999/xlink">
	<desc>
			Created with Pixso.
	</desc>
	<defs/>
	<circle id="Ellipse 3" r="30.000000" transform="matrix(-1 0 0 -1 30 30)" fill="#000000" fill-opacity="1.000000"/>
	<path id="Vector" d="M46.79 32.4L32.44 46.78C30.83 48.4 28.21 48.4 26.6 46.78C24.99 45.17 24.99 42.54 26.6 40.93L34.18 33.33L14.83 33.33C12.67 33.33 10.91 31.56 10.91 29.39C10.91 27.23 12.67 25.45 14.83 25.45L34.01 25.45L26.55 17.97C24.94 16.35 24.94 13.73 26.55 12.12C27.36 11.31 28.41 10.9 29.47 10.9C30.53 10.9 31.58 11.31 32.39 12.12L46.79 26.55C48.4 28.17 48.4 30.79 46.79 32.4Z" fill="#FDFDFD" fill-opacity="1.000000" fill-rule="evenodd"/>
</svg>
